<?xml version="1.0" encoding="UTF-8" standalone="no"?>
<svg
   xmlns:dc="http://purl.org/dc/elements/1.1/"
   xmlns:cc="http://creativecommons.org/ns#"
   xmlns:rdf="http://www.w3.org/1999/02/22-rdf-syntax-ns#"
   xmlns:svg="http://www.w3.org/2000/svg"
   xmlns="http://www.w3.org/2000/svg"
   xmlns:sodipodi="http://sodipodi.sourceforge.net/DTD/sodipodi-0.dtd"
   xmlns:inkscape="http://www.inkscape.org/namespaces/inkscape"
   viewBox="0 0 16 16"
   version="1.1"
   id="svg6"
   sodipodi:docname="brightness-increase.svg"
   inkscape:version="0.92.2 5c3e80d, 2017-08-06">
  <metadata
     id="metadata10">
    <rdf:RDF>
      <cc:Work
         rdf:about="">
        <dc:format>image/svg+xml</dc:format>
        <dc:type
           rdf:resource="http://purl.org/dc/dcmitype/StillImage" />
        <dc:title />
      </cc:Work>
    </rdf:RDF>
  </metadata>
  <sodipodi:namedview
     pagecolor="#ffffff"
     bordercolor="#666666"
     borderopacity="1"
     objecttolerance="10"
     gridtolerance="10"
     guidetolerance="10"
     inkscape:pageopacity="0"
     inkscape:pageshadow="2"
     inkscape:window-width="1680"
     inkscape:window-height="983"
     id="namedview8"
     showgrid="true"
     inkscape:zoom="29.5"
     inkscape:cx="10.422896"
     inkscape:cy="10.563534"
     inkscape:window-x="0"
     inkscape:window-y="0"
     inkscape:window-maximized="1"
     inkscape:current-layer="svg6">
    <inkscape:grid
       type="xygrid"
       id="grid4506" />
  </sodipodi:namedview>
  <defs
     id="defs3051">
    <style
       type="text/css"
       id="current-color-scheme">
      .ColorScheme-Text {
        color:#4d4d4d;
      }
      </style>
    <style
       id="current-color-scheme-3"
       type="text/css">
      .ColorScheme-Text {
        color:#7B7C7E;
      }
      .ColorScheme-Background{
        color:#EFF0F1;
      }
      .ColorScheme-Highlight{
        color:#3DAEE6;
      }
      .ColorScheme-ViewText {
        color:#7B7C7E;
      }
      .ColorScheme-ViewBackground{
        color:#FCFCFC;
      }
      .ColorScheme-ViewHover {
        color:#3DAEE6;
      }
      .ColorScheme-ViewFocus{
        color:#1E92FF;
      }
      .ColorScheme-ButtonText {
        color:#7B7C7E;
      }
      .ColorScheme-ButtonBackground{
        color:#EFF0F1;
      }
      .ColorScheme-ButtonHover {
        color:#3DAEE6;
      }
      .ColorScheme-ButtonFocus{
        color:#1E92FF;
      }
</style>
  </defs>
  <path
     style="fill:currentColor"
     d="M 8,5 C 6.3490681,5 5,6.3490681 5,8 5,9.6509319 6.3490681,11 8,11 9.6509319,11 11,9.6509319 11,8 11,6.3490681 9.6509319,5 8,5 Z M 8,5.6816406 A 2.319176,2.319176 0 0 1 10.318359,8 2.319176,2.319176 0 0 1 8,10.318359 2.319176,2.319176 0 0 1 5.6816406,8 2.319176,2.319176 0 0 1 8,5.6816406 Z"
     id="path4508"
     class="ColorScheme-Text"
     inkscape:connector-curvature="0" />
  <g
     id="g4539">
    <path
       id="path4520"
       d="M 8,1 7.5859375,4.4863281 A 3.5423729,3.5423729 0 0 1 8,4.4570312 3.5423729,3.5423729 0 0 1 8.4140625,4.484375 Z"
       style="fill:currentColor"
       class="ColorScheme-Text"
       inkscape:connector-curvature="0" />
    <path
       id="path4525"
       d="m 8.4160156,11.501953 a 3.5423729,3.5423729 0 0 1 -0.4648437,0.03516 3.5423729,3.5423729 0 0 1 -0.3613281,-0.01953 l 0.4121093,3.480469 z"
       style="fill:currentColor"
       class="ColorScheme-Text"
       inkscape:connector-curvature="0" />
  </g>
  <circle
     style="fill:currentColor"
     id="path4559"
     cx="8"
     cy="8"
     r="2"
     class="ColorScheme-Text" />
  <g
     id="g4620"
     transform="rotate(90,8.0009766,7.999026)">
    <path
       inkscape:connector-curvature="0"
       class="ColorScheme-Text"
       style="fill:currentColor"
       d="M 8,1 7.5859375,4.4863281 A 3.5423729,3.5423729 0 0 1 8,4.4570312 3.5423729,3.5423729 0 0 1 8.4140625,4.484375 Z"
       id="path4616" />
    <path
       inkscape:connector-curvature="0"
       class="ColorScheme-Text"
       style="fill:currentColor"
       d="m 8.4160156,11.501953 a 3.5423729,3.5423729 0 0 1 -0.4648437,0.03516 3.5423729,3.5423729 0 0 1 -0.3613281,-0.01953 l 0.4121093,3.480469 z"
       id="path4618" />
  </g>
  <g
     transform="rotate(135,8.0009766,7.999026)"
     id="g4626">
    <path
       id="path4622"
       d="M 8,1 7.5859375,4.4863281 A 3.5423729,3.5423729 0 0 1 8,4.4570312 3.5423729,3.5423729 0 0 1 8.4140625,4.484375 Z"
       style="fill:currentColor"
       class="ColorScheme-Text"
       inkscape:connector-curvature="0" />
    <path
       id="path4624"
       d="m 8.4160156,11.501953 a 3.5423729,3.5423729 0 0 1 -0.4648437,0.03516 3.5423729,3.5423729 0 0 1 -0.3613281,-0.01953 l 0.4121093,3.480469 z"
       style="fill:currentColor"
       class="ColorScheme-Text"
       inkscape:connector-curvature="0" />
  </g>
  <g
     id="g4632"
     transform="rotate(-135,8.0009766,7.999026)">
    <path
       inkscape:connector-curvature="0"
       class="ColorScheme-Text"
       style="fill:currentColor"
       d="M 8,1 7.5859375,4.4863281 A 3.5423729,3.5423729 0 0 1 8,4.4570312 3.5423729,3.5423729 0 0 1 8.4140625,4.484375 Z"
       id="path4628" />
    <path
       inkscape:connector-curvature="0"
       class="ColorScheme-Text"
       style="fill:currentColor"
       d="m 8.4160156,11.501953 a 3.5423729,3.5423729 0 0 1 -0.4648437,0.03516 3.5423729,3.5423729 0 0 1 -0.3613281,-0.01953 l 0.4121093,3.480469 z"
       id="path4630" />
  </g>
</svg>
